<?xml version="1.0" encoding="utf-8"?>
<!-- Generator: Adobe Illustrator 19.0.0, SVG Export Plug-In . SVG Version: 6.00 Build 0)  -->
<svg version="1.1" id="Layer_1" xmlns="http://www.w3.org/2000/svg" xmlns:xlink="http://www.w3.org/1999/xlink" x="0px" y="0px"
	 viewBox="0 0 1024 614" enable-background="new 0 0 1024 614" xml:space="preserve">
<rect id="XMLID_11_" x="0" y="0" fill="#FFFFFF" width="1024" height="614"/>
<g id="XMLID_2_">
	<g id="XMLID_3_">
		<g id="XMLID_4_">
			<g id="XMLID_5_">
				<g id="XMLID_6_">
					<linearGradient id="XMLID_18_" gradientUnits="userSpaceOnUse" x1="571.2049" y1="117.6213" x2="348.2818" y2="392.9084">
						<stop  offset="0" style="stop-color:#72BF44"/>
						<stop  offset="0.3125" style="stop-color:#44AF49"/>
						<stop  offset="0.7712" style="stop-color:#009F4D"/>
						<stop  offset="1" style="stop-color:#00994E"/>
					</linearGradient>
					<path id="XMLID_10_" fill="url(#XMLID_18_)" d="M421.4,236.7c86.8-38.9,174.9-50.2,242.5-36.3c-7.6-3.4-15.2-9.4-19.8-17.7
						c-12.5-22.5-36.9-35.9-64.9-32.8c-11.5,1.3-22.9-1.6-30.4-6.7c-10.5-7.1-22.4-11.6-36.7-11.6c-14.4,0-26.2,4.5-36.8,11.6
						c-7.5,5.1-18.9,8-30.4,6.7c-28-3.1-52.4,10.3-64.9,32.8c-5.6,10-15.3,16.4-24.3,19.5c-22.3,7.6-40.6,27.9-43.1,54.3
						c-1.2,12.5-8.5,22.3-14,27.8c-15,14.9-21.2,32.4-21.2,50.3c0,0.3,0,0.6,0,0.9C314,297.5,363.2,262.8,421.4,236.7z"/>
					<linearGradient id="XMLID_19_" gradientUnits="userSpaceOnUse" x1="641.071" y1="109.153" x2="375.2566" y2="437.4065">
						<stop  offset="0" style="stop-color:#50B848"/>
						<stop  offset="0.27" style="stop-color:#00A94B"/>
						<stop  offset="0.5437" style="stop-color:#00A04D"/>
						<stop  offset="0.7948" style="stop-color:#009B4E"/>
						<stop  offset="1" style="stop-color:#00994E"/>
					</linearGradient>
					<path id="XMLID_9_" fill="url(#XMLID_19_)" d="M498,287.7c74.2-33.3,149.3-46.3,211.8-40.7c-5.4-21.7-21.6-37.8-41.5-44.8l0,0
						c-1.5-0.5-2.9-1.1-4.4-1.8c-67.6-13.9-155.7-2.7-242.5,36.3c-58.1,26.1-107.3,60.8-143.9,98.8c0.4,35.2,26.7,64.1,60.7,68.8
						C375.7,359.4,430.9,317.8,498,287.7z"/>
					<g id="XMLID_7_">
						<path id="XMLID_8_" fill="#00994E" d="M725.4,284.3c-5.5-5.5-12.8-15.4-14-27.8c-0.3-3.3-0.9-6.5-1.6-9.5
							c-62.5-5.6-137.6,7.5-211.8,40.7c-67,30.1-122.3,71.7-159.9,116.6c3.2,0.4,6.4,0.7,9.6,0.7h100.9c9.6,0,17.4,8,17.4,17.5v4.1
							c0,16.1-15.9,18.3-15.9,18.3L368,459c-2.9,0.5-5.4,2.5-5.4,5.4v10.1h298.8v-10.1c0-2.9-2.5-4.9-5.4-5.4l-82.1-14.1
							c0,0-15.9-2.2-15.9-18.3v-4.1c0-9.6,7.8-17.5,17.3-17.5h101c38.8,0,70.3-31.5,70.3-70.3C746.6,316.8,740.3,299.3,725.4,284.3z
							"/>
					</g>
				</g>
			</g>
		</g>
	</g>
</g>
<g id="XMLID_1_">
</g>
<g id="XMLID_12_">
</g>
<g id="XMLID_13_">
</g>
<g id="XMLID_14_">
</g>
<g id="XMLID_15_">
</g>
<g id="XMLID_16_">
</g>
</svg>
